<svg width="32" height="32" viewBox="0 0 32 32" fill="none" xmlns="http://www.w3.org/2000/svg">
<g clip-path="url(#clip0)">
<path d="M11.9798 32C11.9556 29.7931 12.0633 27.5238 11.9679 24.6135C11.9482 24.0157 11.9284 17.7199 11.8585 17.3885C11.8585 17.3885 9.19902 17.407 7.98582 17.414C7.98582 17.414 7.90483 15.0904 7.90483 14.3052C7.90483 13.5331 7.90483 12.7618 7.90483 11.9898C7.90483 11.9898 10.9981 11.822 11.8676 11.746C11.8676 11.746 11.9889 8.7991 12.1097 7.84408C12.2483 6.75339 12.2779 5.6516 12.9188 4.68589C14.0921 2.92015 15.258 1.36367 17.4156 0.893762C18.2312 0.71616 23.6168 -0.342052 23.8166 0.527869L23.6958 5.76877C22.2322 5.76877 20.4804 5.61954 18.9869 6.72955C18.1556 7.34828 17.927 7.86382 17.8427 8.88009C17.793 9.4721 17.7815 11.8673 17.7815 11.8673C18.57 11.9803 19.7371 11.9306 20.5845 11.8673C21.5424 11.7961 24 12.0502 24 12.0502C24 13.6351 23.9367 17.296 23.9424 17.4519C22.9632 17.4358 22.069 17.4646 20.9314 17.4153C20.7473 17.4066 17.7843 17.451 17.793 17.5045C18.008 18.8225 17.6988 20.2219 17.7173 21.5544C17.728 22.331 17.9566 29.3557 17.8514 31.9457L11.9798 32Z" fill="white"/>
</g>
<defs>
<clipPath id="clip0">
<rect width="32" height="32" fill="white"/>
</clipPath>
</defs>
</svg>
