<svg width="32" height="32" viewBox="0 0 32 32" fill="none" xmlns="http://www.w3.org/2000/svg">
<g clip-path="url(#clip0)">
<path fill-rule="evenodd" clip-rule="evenodd" d="M16.009 31.9957C18.2233 31.9957 20.4377 32.0059 22.6519 31.9927C24.7351 31.9803 26.6915 31.5052 28.3867 30.2388C30.6005 28.585 31.7333 26.3259 31.9442 23.5999C32.0184 22.6405 31.9953 21.6728 31.9966 20.7089C32.0016 16.9708 31.9988 13.2327 31.9984 9.49452C31.9983 7.96777 31.7859 6.47711 31.1399 5.08102C29.8293 2.24904 27.5433 0.700856 24.5271 0.164324C23.8982 0.0524801 23.2494 0.0106991 22.6097 0.00879289C18.193 -0.00423838 13.7763 -0.00123872 9.35957 0.00335503C7.06286 0.00569878 4.96229 0.6122 3.17226 2.1023C1.35361 3.61602 0.393918 5.59583 0.0953872 7.91702C0.0438872 8.31736 0.0123559 8.72343 0.0119809 9.12683C0.0076684 13.7697 -0.0203628 18.4129 0.0251372 23.0553C0.0500122 25.5917 0.894575 27.8406 2.78276 29.6126C4.34898 31.0824 6.25276 31.8504 8.36836 31.9255C10.9122 32.0159 13.4618 31.9469 16.0089 31.9469C16.009 31.9632 16.009 31.9795 16.009 31.9957ZM15.984 2.95667C18.1147 2.95667 20.2452 2.94811 22.3757 2.96254C22.9329 2.96633 23.4982 2.99401 24.0449 3.09289C26.1333 3.47042 27.721 4.51789 28.553 6.55133C28.9758 7.5843 29.1139 8.69271 29.1319 9.76621C29.2018 13.9309 29.1624 18.0975 29.1574 22.2634C29.1569 22.7148 29.152 23.1711 29.0882 23.6164C28.8018 25.616 27.9349 27.255 26.0947 28.2517C25.0675 28.808 23.9525 29.018 22.7934 29.0184C18.33 29.0197 13.8665 29.021 9.40304 29.0157C8.99967 29.0152 8.59273 28.9929 8.19361 28.9368C5.92029 28.6176 4.24582 27.4972 3.40782 25.293C3.06964 24.4035 2.96157 23.4715 2.96139 22.5252C2.96073 18.1689 2.95654 13.8126 2.96711 9.45621C2.96839 8.92324 3.00814 8.38261 3.10354 7.8589C3.52676 5.5353 4.82242 3.93824 7.12989 3.29605C7.89882 3.08214 8.72079 2.98767 9.5212 2.97155C11.6748 2.9283 13.8297 2.95683 15.984 2.95667Z" fill="white"/>
<path fill-rule="evenodd" clip-rule="evenodd" d="M24.247 16.051C24.245 11.4954 20.528 7.79013 15.9713 7.80126C11.4128 7.81229 7.74176 11.4918 7.73911 16.0522C7.73645 20.6075 11.4478 24.3131 16.008 24.3082C20.5288 24.3033 24.249 20.5749 24.247 16.051ZM15.9962 10.7754C18.9026 10.7732 21.2965 13.1652 21.2914 16.0668C21.2864 18.9482 18.8987 21.3404 16.0159 21.3522C13.1136 21.3639 10.7209 18.9792 10.7148 16.0686C10.7086 13.1539 13.0794 10.7777 15.9962 10.7754Z" fill="white"/>
<path fill-rule="evenodd" clip-rule="evenodd" d="M24.5529 22.6457C23.5211 22.6549 22.7077 23.4806 22.711 24.5154C22.7142 25.562 23.548 26.3826 24.6007 26.3754C25.6208 26.3684 26.4521 25.5264 26.449 24.5034C26.4459 23.4659 25.5992 22.6363 24.5529 22.6457Z" fill="white"/>
</g>
<defs>
<clipPath id="clip0">
<rect width="32" height="32" fill="white" transform="matrix(1 0 0 -1 0 32)"/>
</clipPath>
</defs>
</svg>
