<svg width="32" height="32" viewBox="0 0 32 32" fill="none" xmlns="http://www.w3.org/2000/svg">
<path d="M16.0001 4.84001C17.8314 4.84001 19.3207 6.37365 19.3207 8.25947C19.3207 10.1435 17.8314 11.6775 16.0001 11.6775C14.1706 11.6775 12.6796 10.1435 12.6796 8.25947C12.6796 6.37365 14.1706 4.84001 16.0001 4.84001ZM16.0001 16.5157C20.4239 16.5157 24.0199 12.8126 24.0199 8.25947C24.0199 3.70455 20.4239 -9.96952e-07 16.0001 -9.96952e-07C11.5775 -9.96952e-07 7.98039 3.70455 7.98039 8.25947C7.98039 12.8124 11.5775 16.5157 16.0001 16.5157ZM19.2448 23.2529C20.8775 22.8698 22.452 22.2048 23.902 21.2666C24.9993 20.5544 25.3302 19.0604 24.6386 17.9302C23.9479 16.7975 22.4979 16.4569 21.3987 17.1691C18.1138 19.2969 13.8841 19.296 10.6009 17.1691C9.50146 16.4569 8.05172 16.7977 7.36172 17.9302C6.67013 19.0613 6.99995 20.5544 8.09763 21.2666C9.54737 22.2037 11.1219 22.8698 12.7546 23.2529L8.27083 27.87C7.35413 28.8149 7.35413 30.3466 8.27172 31.2913C8.73095 31.7633 9.33179 31.9999 9.93245 31.9999C10.5342 31.9999 11.1359 31.7635 11.5951 31.2913L15.9991 26.7542L20.4069 31.2913C21.3236 32.2362 22.811 32.2362 23.7284 31.2913C24.6469 30.3466 24.6469 28.8139 23.7284 27.87C23.7286 27.87 19.2448 23.2529 19.2448 23.2529Z" fill="white"/>
</svg>
