<svg width="32" height="32" viewBox="0 0 32 32" fill="none" xmlns="http://www.w3.org/2000/svg">
<path d="M1.0805 6C2.19946 6 3.90454 6 4.86365 6C5.3432 6 5.71619 6.31492 5.87604 6.73481C6.35559 8.09945 7.42127 11.0912 8.6468 13.1381C10.2986 15.8149 11.3643 16.8122 12.057 16.7072C12.7496 16.5497 12.5365 14.7652 12.5365 13.3481C12.5365 11.9309 12.6964 9.51658 12.0037 8.41437L10.938 6.89227C10.6716 6.52486 10.938 6.05249 11.3643 6.05249H17.4386C18.0247 6.05249 18.5043 6.52486 18.5043 7.10221V14.7127C18.5043 14.7127 18.7707 16.0773 20.2627 14.6602C21.7546 13.2431 23.3531 10.6188 24.6852 7.94199L25.218 6.68232C25.3779 6.31492 25.7509 6.05249 26.1772 6.05249H30.1202C30.8661 6.05249 31.399 6.78729 31.1325 7.46961L30.7063 8.57182C30.7063 8.57182 29.2676 11.4061 27.7757 13.4006C26.2837 15.4475 25.964 15.9199 26.1772 16.4448C26.3903 16.9696 30.2267 20.4862 31.1858 22.1657C31.4522 22.6381 31.6654 23.058 31.8785 23.4254C32.2515 24.1077 31.7187 25 30.9194 25H26.4436C26.0706 25 25.6976 24.7901 25.5378 24.4751L25.1115 23.7928C25.1115 23.7928 22.394 20.6436 20.7422 19.6464C19.0371 18.7017 19.0904 20.0663 19.0904 20.0663V22.8481C19.0904 24.0028 18.1313 24.9475 16.9591 24.9475H15.8934C15.8934 24.9475 10.0322 24.9475 5.3432 18.0718C1.66662 12.7182 0.441095 9.25414 0.0148251 7.25967C-0.0917425 6.62983 0.387812 6 1.0805 6Z" fill="white"/>
</svg>
